<?xml version="1.0" standalone="no"?>
<!DOCTYPE svg PUBLIC "-//W3C//DTD SVG 20010904//EN"
 "http://www.w3.org/TR/2001/REC-SVG-20010904/DTD/svg10.dtd">
<svg version="1.0" xmlns="http://www.w3.org/2000/svg"
 width="300.000000pt" height="450.000000pt" viewBox="0 0 300.000000 450.000000"
 preserveAspectRatio="xMidYMid meet">
<metadata>
Created by potrace 1.10, written by Peter Selinger 2001-2011
</metadata>
<g transform="translate(0.000000,450.000000) scale(0.100000,-0.100000)"
fill="#000000" stroke="none">
<path d="M86 4355 c-6 -121 -4 -150 9 -175 9 -16 18 -30 20 -30 3 0 4 80 3
178 l-2 177 -6 -160 c-7 -187 -11 -179 -10 18 1 75 -1 137 -3 137 -2 0 -7 -65
-11 -145z"/>
<path d="M1801 4474 l-11 -26 -760 4 -760 3 0 -100 c0 -118 6 -145 30 -145 14
0 20 -11 25 -42 4 -24 20 -86 36 -138 20 -65 29 -117 29 -165 0 -73 5 -89 29
-97 21 -6 41 -84 41 -160 0 -49 4 -69 15 -75 13 -8 15 -46 13 -273 l-3 -265
-59 105 c-225 399 -327 573 -333 566 -3 -2 0 -13 6 -24 6 -12 11 -79 12 -154
0 -73 4 -151 8 -173 5 -22 9 -32 10 -22 1 15 12 17 81 17 l80 0 0 -1110 0
-1110 -78 0 -78 0 2 206 c1 171 -1 204 -12 200 -12 -5 -14 138 -17 907 -2 807
-2 764 -5 -370 -1 -849 -5 -1284 -12 -1288 -7 -4 -10 480 -10 1473 l0 1480
-36 61 c-20 34 -39 59 -42 57 -2 -3 9 -27 26 -55 l31 -50 -32 -4 c-31 -4 -31
-4 6 -5 l37 -2 0 -1494 0 -1495 -37 -4 c-34 -4 -33 -4 6 -3 39 1 46 5 62 36
16 29 19 57 19 177 0 96 4 144 11 149 7 4 45 6 86 5 106 -3 113 5 113 126 l0
93 44 0 c25 0 48 5 51 10 3 6 15 10 25 10 21 0 22 -4 39 -109 14 -84 48 -135
109 -164 26 -12 48 -22 49 -22 6 -1 -22 -107 -38 -142 -10 -23 -18 -61 -17
-85 0 -24 -22 -150 -51 -281 -28 -131 -52 -259 -54 -285 l-2 -47 72 -35 72
-35 1 -52 c0 -41 3 -53 16 -53 11 0 15 8 12 28 -2 19 1 26 11 24 12 -3 12 0 1
12 -18 23 1 21 83 -8 37 -14 67 -23 67 -21 0 2 25 -5 57 -16 39 -13 83 -19
144 -19 83 0 89 2 130 32 41 32 55 51 100 132 16 30 23 36 30 25 6 -10 9 -7 9
13 0 15 6 47 14 70 8 24 17 57 21 73 8 34 5 39 51 -80 44 -114 83 -188 122
-227 l36 -38 96 1 c52 1 109 5 125 8 17 4 -22 5 -86 3 l-115 -5 -42 40 c-43
41 -102 154 -140 268 -29 86 -51 222 -59 360 -5 93 -9 114 -16 96 -8 -15 -7
-64 2 -159 8 -75 15 -159 17 -187 9 -122 -109 -350 -207 -401 -46 -23 -128
-17 -259 21 -117 34 -268 97 -281 117 -3 5 -10 10 -15 11 -13 3 -11 24 21 157
40 169 66 313 63 347 -2 28 -10 1 -31 -102 -34 -170 -76 -365 -83 -384 -3 -10
-8 -11 -15 -4 -8 8 4 84 41 265 64 315 57 290 81 277 11 -5 28 -8 38 -4 24 7
53 -4 44 -18 -3 -6 -1 -7 5 -3 6 4 38 0 71 -9 79 -20 87 -19 114 11 18 21 53
131 45 140 -3 3 -215 59 -258 69 -55 12 58 -26 151 -51 54 -15 99 -31 99 -36
0 -5 -8 -7 -18 -4 -34 11 -263 76 -268 76 -8 0 3 44 13 47 5 2 7 17 5 33 -2
17 0 30 4 30 5 0 45 -11 89 -25 153 -49 270 -85 278 -85 4 0 7 4 7 9 0 6 -8 9
-17 9 -10 0 -72 18 -138 42 -66 23 -144 48 -172 57 -29 9 -50 20 -47 25 3 4 2
8 -3 7 -12 -3 -101 40 -108 51 -4 6 -10 8 -14 6 -14 -9 -40 61 -52 145 -35
244 38 861 115 965 21 27 41 12 96 -68 68 -100 71 -104 67 -93 -14 42 -68 132
-94 158 l-31 31 56 34 c75 46 372 182 372 172 0 -5 -5 -12 -11 -15 -9 -6 -57
-104 -80 -163 -10 -26 6 -67 21 -57 11 7 50 -12 50 -23 0 -4 -18 -18 -40 -32
-22 -13 -40 -31 -40 -40 0 -23 45 -182 59 -208 6 -12 8 -22 4 -22 -4 0 -2 -4
5 -9 8 -5 15 -20 15 -34 1 -14 6 -23 11 -20 4 3 5 -5 1 -17 -5 -15 -4 -20 4
-16 12 8 33 -35 27 -56 -1 -7 -1 -9 2 -4 2 4 20 -20 39 -54 39 -68 36 -80 -20
-80 -31 0 -69 18 -137 63 l-45 30 25 -28 c14 -15 39 -36 55 -47 l30 -19 -34 6
c-19 3 -37 8 -41 10 -4 2 -21 0 -39 -5 -25 -7 -31 -6 -31 7 0 28 -14 4 -26
-44 -7 -26 -10 -53 -7 -60 11 -27 -7 -11 -38 35 -18 26 -50 68 -71 93 -40 48
-50 71 -20 48 20 -16 -69 92 -112 136 l-29 30 33 -60 c18 -33 65 -100 105
-150 40 -49 87 -112 104 -139 32 -52 41 -83 19 -70 -9 5 -9 2 1 -9 12 -15 11
-17 -13 -17 -15 0 -48 -11 -74 -24 -26 -13 -64 -31 -84 -39 -34 -14 -36 -14
-32 1 3 9 -8 2 -25 -17 -17 -19 -29 -36 -27 -38 1 -2 43 16 92 40 108 53 129
60 174 59 40 -2 111 -30 123 -49 4 -7 25 -13 45 -13 44 0 150 -26 168 -41 7
-6 17 -8 23 -5 5 3 12 0 14 -6 4 -10 6 -10 6 0 2 25 20 11 25 -20 2 -18 2 17
0 77 -3 61 -11 146 -18 190 -8 44 -12 82 -10 84 2 2 52 -4 111 -13 122 -20
218 -53 381 -132 62 -30 116 -54 119 -54 4 0 -4 11 -17 25 -13 14 -29 24 -35
22 -5 -2 -19 -1 -30 4 -18 7 -18 8 -2 8 10 1 15 6 12 11 -3 6 -18 7 -33 4 -22
-5 -24 -3 -12 6 12 9 10 10 -12 6 -16 -4 -28 -2 -28 4 0 5 -9 10 -20 10 -34 0
-22 17 18 24 20 3 50 13 67 21 16 9 39 14 51 11 13 -4 60 -47 106 -97 46 -51
103 -113 127 -138 42 -45 42 -44 -9 24 -30 39 -80 98 -113 131 -40 42 -55 63
-46 67 8 3 3 6 -10 6 -18 1 -22 5 -16 18 13 32 35 127 34 153 0 18 -15 38 -52
67 -41 35 -59 43 -92 43 -22 0 -51 -7 -63 -16 -12 -8 -22 -12 -22 -7 0 4 -4 4
-8 -2 -4 -5 -18 -19 -31 -30 -24 -20 -24 -20 3 31 32 60 44 64 193 64 l92 0 4
-27 c4 -26 4 -26 6 5 1 37 12 34 -146 33 l-112 -1 36 63 c20 34 42 69 49 77 7
9 20 32 28 52 15 36 15 37 -19 75 -19 21 -35 41 -35 44 0 4 18 18 39 32 27 18
41 23 44 14 2 -7 2 -1 0 13 -3 14 -22 68 -43 120 -21 52 -37 96 -35 98 3 4
136 -51 169 -69 10 -6 62 -26 115 -46 150 -54 151 -55 151 -60 0 -3 -19 -26
-41 -51 -23 -26 -48 -61 -57 -79 -8 -18 -20 -29 -26 -26 -6 3 -8 3 -4 -2 4 -4
4 -13 -1 -19 -19 -25 -73 -203 -77 -255 l-4 -56 14 65 c23 110 113 304 175
379 24 30 30 32 50 22 12 -7 19 -16 16 -22 -4 -5 -2 -9 4 -9 28 0 60 -116 67
-240 12 -217 14 -567 5 -659 -14 -132 -32 -169 -96 -201 -43 -21 -63 -25 -140
-25 -82 1 -287 22 -439 45 -33 6 -62 8 -64 5 -5 -4 17 -10 82 -20 35 -6 38 -8
32 -33 -25 -101 -25 -99 2 -94 17 3 23 1 18 -7 -4 -7 0 -11 12 -11 10 0 45 -9
78 -20 32 -12 92 -24 132 -28 62 -7 77 -6 102 10 17 10 30 26 30 35 0 10 9 24
20 31 13 8 20 23 20 43 0 24 4 30 18 27 14 -3 18 -18 24 -78 4 -41 12 -92 18
-113 6 -21 13 -50 15 -65 2 -15 13 -67 25 -117 12 -49 25 -124 30 -166 4 -42
10 -85 14 -95 3 -11 8 -35 10 -54 3 -19 10 -73 17 -119 14 -96 21 -83 -86
-151 -56 -35 -67 -50 -40 -50 11 0 15 -12 15 -50 0 -38 4 -50 15 -50 12 0 15
14 15 63 l0 62 65 34 66 34 -7 46 c-8 60 -52 300 -60 328 -6 20 -3 21 38 18
40 -2 47 -8 100 -71 l57 -69 1 -224 c0 -123 2 -222 5 -219 16 16 -4 4480 -20
4496 -3 3 -7 3 -9 1 -1 -2 0 -173 4 -379 5 -300 3 -379 -7 -395 -10 -16 -13
-201 -13 -942 0 -916 0 -923 20 -923 20 0 20 -7 20 -667 0 -395 -4 -663 -9
-658 -5 6 -30 35 -56 65 l-47 55 3 600 c6 859 -3 3283 -11 3075 -4 -96 -5
-643 -3 -1215 3 -913 1 -1033 -11 -979 -30 130 -69 174 -200 225 l-86 34 0
520 c0 731 -12 1585 -22 1585 -4 0 -8 -27 -8 -60 0 -53 -6 -70 -47 -145 -47
-82 -49 -85 -85 -85 -21 0 -38 2 -38 5 0 3 20 40 44 83 64 113 107 202 99 202
-5 0 -39 -61 -78 -135 l-70 -135 -3 105 c-2 80 1 112 13 135 8 16 12 30 7 30
-5 0 -14 -12 -21 -26z m-288 -44 l177 0 0 -87 0 -86 -267 6 c-148 4 -465 7
-705 7 l-438 0 0 87 0 86 528 -6 c290 -4 607 -7 705 -7z m277 -110 l0 -120 49
0 48 0 8 -875 c4 -482 6 -878 4 -880 -5 -5 -182 68 -194 80 -37 36 -55 76 -55
124 0 48 25 121 42 121 4 0 9 -53 10 -117 l2 -118 3 117 c3 105 6 117 23 123
50 16 130 136 130 195 0 28 -39 80 -60 80 -19 0 -20 4 -14 38 3 20 17 69 30
108 13 39 24 81 24 94 0 36 -45 104 -89 135 l-41 28 0 493 0 494 40 0 40 0 0
-120z m205 -942 l7 -978 -46 17 -45 17 -3 891 -3 890 39 73 c21 40 39 72 41
70 1 -2 6 -443 10 -980z m-307 867 c1 -1 -1 -10 -4 -20 -7 -17 -28 -18 -427
-12 -231 4 -541 7 -688 7 -264 0 -268 0 -280 21 l-11 22 703 -8 c387 -4 705
-8 707 -10z m12 -405 c0 -247 -4 -380 -10 -380 -5 0 -10 7 -10 16 0 27 -31 70
-64 87 -17 9 -52 25 -78 36 l-48 20 0 76 c0 68 2 75 20 75 17 0 20 -8 23 -82
1 -46 4 -8 5 85 l2 167 25 0 c24 0 24 -2 27 -87 3 -83 4 -88 26 -91 21 -3 22
-7 22 -105 0 -70 3 -97 10 -87 6 9 10 141 10 323 0 266 2 307 15 307 8 0 15 5
15 10 0 6 2 10 5 10 3 0 5 -171 5 -380z m-490 362 l435 -2 -5 -72 c-3 -50 -13
-89 -30 -123 l-25 -50 -175 -3 c-96 -2 -365 0 -597 3 l-421 7 -31 117 c-17 65
-31 120 -31 122 0 3 100 4 223 4 122 -1 418 -2 657 -3z m415 -361 c-22 -44
-18 -62 6 -21 11 19 18 27 15 17 -3 -10 -6 -30 -6 -43 0 -27 -24 -33 -34 -8
-13 34 -6 159 12 201 l17 43 3 -80 c2 -57 -2 -88 -13 -109z m-645 98 l550 -2
0 -62 0 -62 -565 1 -565 1 0 69 c0 56 3 67 15 62 8 -3 262 -6 565 -7z m550
-146 c0 -8 -1121 -6 -1129 2 -2 3 251 5 562 5 312 0 567 -3 567 -7z m-50 -68
l0 -45 -504 0 -504 0 -15 45 -16 45 520 0 519 0 0 -45z m0 -78 c0 -14 -5 -17
-20 -12 -12 4 -20 2 -20 -5 0 -6 -8 -9 -17 -7 -51 14 -95 18 -88 7 4 -7 -1 -9
-17 -6 -78 16 -90 16 -84 1 4 -12 -3 -15 -29 -15 -18 0 -65 -11 -103 -25 -68
-24 -76 -25 -346 -25 l-276 0 0 48 c0 27 2 51 4 53 2 2 227 4 500 4 473 0 496
-1 496 -18z m-62 -48 c24 1 51 -4 60 -11 12 -10 14 -10 8 0 -4 6 -5 12 -2 12
9 0 81 -44 87 -53 4 -5 11 -7 16 -4 12 7 46 -27 66 -66 8 -15 38 -44 68 -65
34 -24 61 -53 77 -83 l23 -46 -20 -39 c-12 -21 -21 -49 -21 -61 0 -12 -4 -25
-10 -28 -5 -3 -10 -23 -10 -44 0 -37 -22 -82 -35 -69 -4 3 -9 25 -11 49 -2 23
-15 66 -29 95 -14 29 -25 61 -25 71 -1 54 -50 153 -77 153 -18 0 -112 28 -136
41 -12 7 -16 6 -15 -3 3 -14 -140 -16 -242 -4 -36 4 -74 2 -110 -8 l-55 -14
100 4 c76 3 90 1 60 -5 -22 -5 -62 -21 -90 -36 -53 -29 -71 -42 -42 -32 31 11
8 -11 -39 -39 -25 -15 -48 -24 -51 -21 -3 4 11 16 31 28 42 24 47 33 11 19
-29 -11 -30 -10 -10 36 8 20 13 40 10 44 -3 5 6 17 20 28 22 18 23 21 8 24
-14 3 -11 9 17 26 42 26 52 27 158 3 46 -10 79 -14 74 -9 -5 5 -58 19 -118 32
-92 19 -106 24 -88 34 35 19 152 42 186 37 27 -5 29 -4 13 5 -15 7 -4 8 40 3
33 -3 80 -5 103 -4z m-1204 -150 c36 -64 66 -118 66 -120 0 -10 -146 4 -152
14 -4 7 -8 68 -8 137 0 144 -8 146 94 -31z m688 94 c-78 -2 -206 -2 -285 0
-78 1 -14 3 143 3 157 0 221 -2 142 -3z m-365 -42 c-8 -37 2 -71 19 -71 12 0
14 -95 14 -595 0 -399 3 -595 10 -595 7 0 10 195 10 593 l-1 592 192 3 c106 1
190 -1 186 -4 -4 -4 -2 -13 4 -20 7 -9 5 -22 -7 -45 -24 -47 -34 -88 -23 -94
5 -4 9 -21 9 -38 0 -18 11 -74 25 -125 29 -110 29 -103 11 -96 -17 7 -44 -20
-52 -53 -6 -21 3 -64 22 -110 4 -10 -21 -11 -109 -6 l-114 6 -6 -254 c-4 -139
-4 -255 -2 -258 11 -10 18 12 25 71 7 57 7 59 9 18 1 -25 4 -54 7 -65 4 -16
-5 -24 -45 -44 -61 -28 -126 -83 -146 -122 -18 -34 -43 -134 -60 -244 -11 -69
-13 37 -14 746 -1 454 2 829 6 832 3 4 13 7 21 7 11 0 13 -8 9 -29z m503 20
c0 -5 -11 -16 -25 -25 -19 -12 -24 -23 -20 -37 6 -18 0 -19 -219 -19 l-226 0
0 45 0 45 245 0 c135 0 245 -4 245 -9z m483 -123 c80 -26 94 -42 107 -122 5
-32 21 -82 36 -112 26 -53 26 -58 22 -202 -4 -140 -5 -151 -36 -215 -53 -115
-153 -195 -254 -205 -53 -5 -143 30 -192 76 -43 40 -92 122 -115 189 -26 78
-44 255 -31 308 6 22 14 75 19 119 14 129 60 167 203 167 67 0 125 7 167 18 3
0 36 -9 74 -21z m894 -421 c-1 -73 -3 -10 -3 138 0 149 2 208 3 132 2 -76 2
-198 0 -270z m-1357 321 c0 -10 -5 -17 -11 -15 -6 1 -14 -4 -17 -12 -3 -8 0
-11 7 -7 21 13 23 -23 7 -102 -9 -44 -16 -97 -17 -118 -1 -34 -4 -28 -25 46
-13 47 -27 105 -30 130 -6 44 -5 46 29 65 20 10 34 22 32 25 -2 4 2 7 10 7 8
0 15 -9 15 -19z m-740 -1105 c0 -597 -2 -1084 -4 -1082 -6 6 -15 2127 -9 2150
3 10 7 19 9 19 2 0 4 -489 4 -1087z m53 975 l37 -68 -40 0 -40 0 0 72 c0 39 1
69 3 67 2 -2 20 -34 40 -71z m45 -970 l2 -888 -29 0 c-16 0 -36 -3 -45 -6 -15
-6 -16 77 -16 891 l0 896 43 -3 42 -3 3 -887z m62 780 c0 -5 -9 -8 -20 -8 -16
0 -20 7 -20 38 l0 37 20 -30 c11 -16 20 -33 20 -37z m1339 36 c28 -36 26 -70
-8 -129 -25 -44 -105 -116 -115 -104 -2 2 1 33 6 69 5 36 12 79 14 97 5 36 48
93 69 93 8 0 23 -12 34 -26z m-795 -46 c8 -13 17 -34 21 -48 6 -23 4 -22 -22
9 -20 24 -34 32 -43 26 -10 -6 -9 -10 8 -16 17 -7 20 -14 15 -42 -3 -20 -1
-37 6 -41 7 -4 11 1 11 13 0 38 29 23 40 -21 6 -24 15 -54 21 -67 13 -32 9
-34 -29 -11 -68 42 -119 150 -92 199 14 28 46 27 64 -1z m-537 -572 c6 -603
-6 -976 -34 -976 -11 0 -13 139 -13 771 l0 770 20 -3 c21 -3 21 -9 27 -562z
m283 358 c0 -32 -4 -53 -9 -49 -6 3 -8 22 -6 43 2 20 4 43 4 50 1 6 3 12 6 12
3 0 5 -25 5 -56z m228 34 c7 -7 12 -44 12 -95 l0 -83 -115 0 -115 0 0 95 0 95
103 0 c67 0 107 -4 115 -12z m50 -103 c2 -38 8 -75 14 -82 12 -15 76 -17 98
-3 11 7 0 10 -37 10 l-51 0 -4 65 c-3 56 -1 65 14 65 10 0 25 -15 34 -32 9
-18 27 -48 41 -66 38 -50 29 -66 -42 -72 l-60 -5 -3 -52 c-2 -38 -7 -53 -18
-53 -10 0 -14 14 -14 55 l0 56 -127 -3 c-115 -3 -128 -5 -127 -20 1 -10 -2
-18 -7 -18 -5 0 -9 26 -9 57 0 49 5 68 10 38 5 -30 25 -35 136 -35 134 0 134
0 127 104 -4 55 -3 68 8 64 10 -3 15 -26 17 -73z m549 -196 c-19 -28 -72 -81
-117 -118 l-84 -67 -70 74 c-92 97 -115 130 -123 178 l-6 39 24 -18 c158 -113
228 -110 344 14 l60 65 3 -58 c3 -52 -1 -64 -31 -109z m-587 11 l-1 -55 -114
-51 -115 -52 0 110 0 110 115 -4 115 -3 0 -55z m114 25 c-15 -20 -35 -40 -46
-46 -16 -9 -18 -6 -18 29 0 48 4 52 52 52 l39 0 -27 -35z m55 -54 c1 -91 8
-138 35 -246 8 -33 18 -80 21 -105 4 -25 8 -58 11 -73 2 -15 11 -53 20 -83 8
-30 16 -81 17 -113 1 -32 5 -55 8 -50 6 10 23 -63 34 -141 l6 -46 -42 4 c-24
3 -44 0 -48 -7 -17 -27 -47 9 -102 123 -32 67 -77 178 -100 248 l-42 126 86
82 c48 45 87 87 87 94 0 7 -3 7 -8 1 -4 -5 -24 -25 -43 -43 l-36 -33 -37 18
c-34 16 -37 21 -32 47 9 42 82 183 125 238 20 26 37 47 37 48 1 0 2 -40 3 -89z
m520 24 c17 -20 31 -37 31 -39 0 -2 14 -40 30 -86 17 -46 30 -88 30 -94 -1 -6
-18 -23 -40 -38 l-39 -27 -45 51 c-26 27 -46 46 -46 40 0 -9 41 -58 122 -147
29 -31 35 -54 19 -71 -4 -5 -24 -38 -43 -74 -52 -97 -177 -319 -204 -362 -13
-21 -24 -43 -24 -49 0 -7 -10 -9 -26 -5 -15 4 -39 10 -55 13 -21 4 -28 10 -25
22 5 19 24 94 61 241 14 58 50 177 80 265 82 240 94 275 110 338 9 31 19 57
24 57 5 0 23 -16 40 -35z m-417 -101 l60 -61 -31 -22 c-17 -12 -31 -28 -31
-35 0 -7 -9 -21 -21 -32 -16 -15 -22 -16 -29 -5 -11 19 -30 151 -30 209 1 40
2 44 12 27 6 -11 37 -48 70 -81z m315 4 c-8 -18 -27 -71 -42 -118 -15 -47 -29
-87 -30 -88 -2 -2 -11 11 -21 29 -9 19 -30 46 -46 61 l-29 27 43 30 c24 16 63
49 88 73 48 46 61 41 37 -14z m820 -210 c-2 -29 -3 -8 -3 47 0 55 1 79 3 53 2
-26 2 -71 0 -100z m-1051 107 c4 -9 19 -15 40 -15 39 0 64 -21 90 -75 17 -36
17 -37 -19 -153 -43 -138 -97 -356 -97 -392 0 -14 -4 -31 -9 -39 -17 -27 -31
1 -31 63 0 44 -5 67 -15 76 -8 7 -15 22 -15 33 0 11 -16 108 -36 215 l-37 194
27 24 c14 14 26 30 26 36 0 36 65 64 76 33z m432 -479 c15 -8 40 -28 56 -45
26 -27 28 -35 23 -83 -8 -78 -25 -111 -54 -103 -13 3 -37 -2 -54 -11 -41 -21
-94 -11 -115 21 -9 13 -12 30 -8 36 4 7 3 9 -4 5 -11 -7 -17 7 -27 64 -5 31
-2 39 27 66 38 36 85 63 111 64 10 0 30 -6 45 -14z m-171 -207 c15 -34 28 -48
49 -54 l29 -8 -28 -8 c-20 -5 -47 0 -100 19 -40 14 -74 27 -76 29 -2 1 7 20
21 40 13 21 36 55 49 75 l24 38 6 -43 c3 -23 14 -63 26 -88z m-520 -32 l41 2
-20 -46 c-35 -80 -38 -100 -18 -118 20 -18 32 -75 16 -75 -6 0 -57 17 -113 37
-113 42 -113 42 -113 135 0 72 12 81 100 71 36 -4 84 -7 107 -6z m140 -32 c2
-22 8 -65 13 -94 6 -34 7 -58 1 -64 -12 -12 -93 7 -128 30 -28 19 -27 31 12
119 24 54 25 55 61 52 35 -3 37 -5 41 -43z m-1130 -198 c-2 -23 -3 -1 -3 48 0
50 1 68 3 42 2 -26 2 -67 0 -90z m353 18 c0 -33 -4 -45 -15 -45 -11 0 -15 12
-15 45 0 33 4 45 15 45 11 0 15 -12 15 -45z m755 -16 c0 -8 4 -20 9 -27 13
-22 -1 -26 -41 -11 -32 12 -39 20 -41 47 l-3 31 38 -13 c21 -7 38 -19 38 -27z
m45 -14 c0 -19 -4 -35 -10 -35 -5 0 -10 16 -10 35 0 19 5 35 10 35 6 0 10 -16
10 -35z m-1153 -197 c-2 -29 -3 -6 -3 52 0 58 1 81 3 53 2 -29 2 -77 0 -105z
m2193 -179 l0 -300 -47 3 -47 3 -13 80 c-7 44 -22 114 -33 155 -10 42 -22 105
-26 141 l-6 66 40 7 c56 8 100 48 113 102 6 24 13 44 15 44 2 0 4 -135 4 -301z
m-515 167 c50 -8 129 -18 178 -21 83 -7 87 -8 87 -31 0 -26 -4 -27 -65 -26
l-40 2 33 -15 c71 -33 14 -64 -95 -51 -44 5 -205 58 -222 72 -6 5 21 84 28 84
3 0 47 -6 96 -14z m-1015 -275 c74 -21 136 -44 138 -50 2 -6 -6 -31 -18 -56
-25 -52 -35 -54 -125 -26 -80 24 -156 61 -162 78 -6 15 16 93 26 93 3 0 67
-17 141 -39z m1496 -216 c12 -8 24 -11 28 -8 3 3 6 1 6 -6 0 -9 -8 -11 -22 -8
-12 4 -28 1 -35 -5 -16 -13 -18 -11 -27 20 -6 17 -3 22 11 22 10 0 28 -7 39
-15z"/>
<path d="M1020 4105 c0 -18 5 -25 20 -25 15 0 20 7 20 25 0 18 -5 25 -20 25
-15 0 -20 -7 -20 -25z"/>
<path d="M1250 3535 c7 -8 20 -15 29 -15 9 0 41 -16 71 -35 68 -43 88 -46 31
-4 -37 26 -122 69 -138 69 -3 0 0 -7 7 -15z"/>
<path d="M1450 3158 c-84 -44 -60 -58 55 -34 36 8 74 10 95 5 46 -10 51 -2 17
27 -37 32 -106 33 -167 2z"/>
<path d="M1111 3124 c-33 -37 -28 -61 6 -32 11 8 44 13 99 13 59 0 85 3 89 13
6 16 -28 29 -102 37 -59 7 -59 7 -92 -31z"/>
<path d="M1409 3062 c15 -28 37 -38 54 -24 9 8 16 6 25 -9 18 -28 66 -22 70 9
4 27 9 27 35 5 16 -14 19 -15 15 -3 -12 40 -112 50 -146 16 -15 -14 -18 -14
-40 7 l-25 22 12 -23z"/>
<path d="M1180 3063 c-21 -8 -50 -34 -50 -46 0 -6 11 0 24 12 l24 23 4 -24 c2
-18 9 -23 33 -23 24 0 31 5 33 23 3 23 4 23 23 6 16 -14 19 -15 14 -2 -11 28
-67 45 -105 31z"/>
<path d="M1643 2980 c0 -36 2 -50 4 -32 2 17 2 47 0 65 -2 17 -4 3 -4 -33z"/>
<path d="M1325 3008 c-9 -32 -15 -112 -6 -98 11 19 26 110 17 110 -4 0 -8 -6
-11 -12z"/>
<path d="M1430 2882 c0 -6 5 -14 10 -17 17 -11 11 -25 -11 -25 -11 0 -29 -5
-39 -10 -12 -7 -38 -7 -67 -2 -43 7 -48 10 -46 32 l3 25 -12 -23 c-9 -17 -9
-25 1 -35 13 -13 122 -37 115 -25 -3 4 8 10 23 14 15 3 34 7 41 10 17 5 15 39
-3 54 -9 8 -15 9 -15 2z"/>
<path d="M1465 2800 c3 -5 15 -10 26 -10 11 0 17 -4 14 -10 -3 -5 -23 -10 -43
-10 -20 0 -51 -4 -67 -8 -37 -10 -146 0 -144 13 0 6 6 9 13 7 7 -2 7 1 -2 9
-10 11 -16 9 -35 -10 -12 -12 -17 -21 -12 -20 6 1 22 -3 37 -11 40 -19 230 -5
261 20 l22 18 -28 11 c-35 14 -50 14 -42 1z"/>
<path d="M1326 2699 c8 -14 42 -16 70 -4 28 11 27 12 -22 11 -29 -1 -50 -4
-48 -7z"/>
<path d="M1764 2988 c-4 -7 -14 -24 -23 -38 -11 -19 -11 -22 -1 -12 20 17 29
15 40 -10 9 -23 9 -23 9 3 1 14 -4 30 -11 37 -9 9 -6 14 13 21 23 9 23 10 2
10 -12 1 -25 -5 -29 -11z"/>
<path d="M1720 2910 c0 -5 5 -12 11 -15 6 -4 7 -19 4 -36 -4 -16 -4 -29 -1
-29 12 0 27 42 21 59 -6 20 -35 37 -35 21z"/>
<path d="M1330 2467 c36 -21 100 -32 100 -18 0 7 -4 9 -10 6 -9 -5 -39 1 -95
20 -13 4 -11 1 5 -8z"/>
<path d="M1337 2192 c-13 -125 -20 -409 -10 -415 6 -4 10 5 9 21 0 15 3 123 8
240 7 208 5 268 -7 154z"/>
<path d="M1364 2016 c-9 -24 4 -48 23 -44 24 4 24 52 0 56 -9 2 -20 -4 -23
-12z"/>
<path d="M1695 1792 c-16 -11 -37 -27 -45 -38 -8 -10 0 -6 18 9 35 28 78 44
90 33 3 -4 0 -12 -8 -17 -13 -8 -12 -9 2 -7 9 2 17 -1 18 -7 1 -5 8 -18 17
-27 19 -21 11 -94 -12 -110 -17 -12 -1 -16 39 -9 22 3 41 12 42 19 1 7 0 8 -3
2 -6 -13 -33 -13 -33 1 0 5 -4 8 -9 5 -11 -7 -8 21 4 31 4 4 5 3 2 -3 -4 -7
-1 -14 6 -17 11 -4 12 4 7 36 -4 23 -8 47 -10 52 -5 21 1 27 15 15 8 -7 12
-16 9 -21 -3 -5 -1 -9 5 -9 5 0 12 -17 14 -37 l4 -38 1 37 c2 29 -5 45 -29 73
-17 19 -38 35 -48 35 -12 -1 -10 -4 7 -13 12 -7 20 -16 16 -20 -10 -10 -44 12
-44 28 0 21 -39 19 -75 -3z"/>
<path d="M1713 1748 c-13 -6 -23 -15 -23 -20 0 -5 -5 -6 -12 -2 -7 4 -8 3 -4
-5 4 -6 1 -14 -7 -17 -8 -3 -14 -16 -13 -29 0 -13 5 -21 9 -18 5 3 7 -1 5 -8
-1 -8 0 -15 5 -16 9 -4 9 1 1 33 -4 15 -2 30 6 37 9 9 11 9 10 -3 -5 -33 3
-43 9 -11 3 20 16 40 30 49 23 16 24 16 16 -8 -4 -14 -14 -32 -21 -41 -21 -23
-17 -29 16 -29 29 0 42 21 22 34 -5 3 -7 19 -4 36 5 33 -6 37 -45 18z"/>
<path d="M1710 1640 c13 -8 12 -10 -2 -10 -10 0 -18 -4 -18 -10 0 -5 4 -10 9
-10 5 0 12 -8 14 -17 4 -16 5 -16 6 1 1 14 6 17 24 13 21 -6 21 -5 3 8 -10 7
-16 18 -13 22 3 5 -4 10 -16 10 -17 2 -19 0 -7 -7z"/>
<path d="M1151 1521 c-29 -67 -27 -89 7 -102 39 -16 102 -23 102 -12 0 5 -13
10 -30 11 -16 1 -41 7 -55 12 -23 9 -26 14 -20 43 8 41 38 82 59 81 9 -1 16 2
16 7 0 5 -13 9 -29 9 -25 0 -31 -7 -50 -49z"/>
<path d="M642 842 c-7 -24 -11 -46 -8 -49 8 -9 27 48 24 71 -2 15 -7 7 -16
-22z"/>
<path d="M2070 3454 c0 -701 4 -1054 11 -1064 7 -10 8 319 3 1045 -3 583 -8
1062 -10 1064 -2 2 -4 -468 -4 -1045z"/>
<path d="M2503 4133 c4 -203 8 -1216 9 -2253 1 -1567 3 -1788 10 -1310 5 316
6 1063 4 1660 -3 597 -6 1352 -6 1678 0 443 -3 592 -12 592 -8 0 -10 -91 -5
-367z"/>
<path d="M2995 2250 c0 -1240 1 -1748 2 -1127 2 620 2 1634 0 2255 -1 620 -2
112 -2 -1128z"/>
<path d="M187 4189 c-19 -69 -1 -309 22 -309 4 0 8 64 9 143 1 104 -2 148 -11
166 l-14 23 -6 -23z m14 -136 c-1 -59 -4 -110 -7 -112 -2 -2 -4 49 -4 114 0
65 3 116 6 112 4 -3 6 -55 5 -114z"/>
<path d="M258 3869 c-3 -82 0 -134 8 -154 11 -27 13 -22 16 60 4 136 2 195
-10 207 -7 7 -11 -28 -14 -113z"/>
<path d="M317 3823 c-9 -8 -9 -190 -1 -220 14 -53 24 -16 24 90 0 105 -7 146
-23 130z m10 -156 c-2 -23 -3 -1 -3 48 0 50 1 68 3 42 2 -26 2 -67 0 -90z"/>
<path d="M361 3605 c1 -115 16 -169 20 -75 4 88 0 143 -11 154 -7 7 -10 -23
-9 -79z"/>
<path d="M391 3513 c1 -37 5 -79 10 -93 7 -20 8 -16 5 18 -2 23 0 42 5 42 15
0 6 93 -8 98 -10 3 -13 -14 -12 -65z"/>
<path d="M427 3473 c-10 -9 -7 -114 3 -138 6 -13 9 7 9 63 1 82 0 88 -12 75z"/>
<path d="M453 3345 c0 -44 2 -61 4 -37 2 23 2 59 0 80 -2 20 -4 1 -4 -43z"/>
<path d="M473 3300 c0 -47 2 -66 4 -42 2 23 2 61 0 85 -2 23 -4 4 -4 -43z"/>
<path d="M180 3100 c38 -46 50 -57 50 -46 0 2 -16 21 -35 42 -19 22 -35 42
-35 47 0 4 -5 7 -11 7 -6 0 8 -22 31 -50z"/>
<path d="M123 2310 c-1 -443 2 -796 7 -785 9 22 9 1133 0 1415 -3 96 -6 -187
-7 -630z"/>
<path d="M907 2355 c-105 -46 -207 -104 -207 -117 0 -14 16 -9 40 15 14 12 27
22 30 23 13 2 240 114 240 119 0 6 12 11 -103 -40z"/>
<path d="M917 2246 c-8 -20 -11 -275 -3 -283 2 -3 7 28 11 69 8 93 3 240 -8
214z"/>
<path d="M776 2232 c27 -17 65 -125 90 -252 l13 -65 -4 73 c-3 40 -14 96 -25
124 -13 34 -16 56 -10 62 12 12 -36 66 -59 66 -10 0 -12 -3 -5 -8z"/>
<path d="M629 2189 c-9 -13 -21 -40 -27 -59 -33 -100 -82 -531 -82 -714 0
-101 18 -263 32 -286 5 -9 6 16 1 65 -7 79 -10 348 -4 435 2 25 10 101 18 170
8 69 17 139 18 155 6 66 26 150 35 153 6 2 8 8 5 13 -3 4 1 22 10 39 20 39 15
61 -6 29z"/>
<path d="M2116 2069 c-83 -124 -119 -182 -105 -174 8 6 11 4 7 -6 -16 -39 -17
-51 -3 -24 32 56 79 130 118 183 21 29 35 58 31 64 -4 7 -3 8 4 4 7 -4 12 -3
12 3 0 29 -21 12 -64 -50z"/>
<path d="M1952 2058 c-11 -18 -23 -44 -27 -58 l-7 -25 18 25 c10 14 21 27 25
30 9 6 23 60 16 60 -3 0 -14 -15 -25 -32z"/>
<path d="M684 2035 c9 -36 43 -97 90 -158 19 -25 42 -60 52 -79 9 -18 20 -35
24 -38 4 -3 12 -14 18 -25 6 -11 12 -14 12 -7 0 20 -51 109 -92 158 -49 60
-51 87 -4 47 l21 -18 -19 23 c-11 12 -26 20 -33 18 -8 -3 -13 0 -11 7 1 6 -13
32 -31 57 -31 42 -33 43 -27 15z"/>
<path d="M810 1993 c0 -14 37 -103 44 -103 7 0 -10 54 -27 86 -9 16 -16 24
-17 17z"/>
<path d="M2105 1831 c-49 -53 -68 -76 -42 -52 86 82 61 33 -38 -74 -54 -58
-99 -105 -101 -105 -6 0 10 77 26 125 11 31 14 58 9 70 -7 19 -8 19 -8 -2 -1
-12 -4 -30 -8 -40 -6 -14 -9 -11 -14 17 -4 24 -7 7 -10 -57 -6 -175 -11 -157
45 -165 74 -10 154 -76 223 -184 11 -16 11 -15 3 8 -5 16 -16 38 -25 51 -8 13
-13 26 -9 29 3 3 -22 26 -54 52 -58 44 -138 74 -169 62 -25 -10 -13 7 75 103
141 154 185 211 187 237 0 13 1 24 0 23 0 -1 -40 -44 -90 -98z"/>
<path d="M885 1828 c-3 -7 -1 -33 4 -58 l9 -45 1 58 c1 55 -4 71 -14 45z"/>
<path d="M2052 1598 c2 -6 15 -18 29 -27 23 -15 23 -15 10 2 -9 12 -10 17 -2
17 7 0 9 5 6 10 -9 14 -48 13 -43 -2z"/>
<path d="M608 1564 c6 -10 25 -35 42 -54 18 -19 27 -27 20 -17 -7 9 -9 17 -4
17 5 0 2 5 -6 10 -13 8 -12 10 3 10 9 0 17 -7 17 -15 0 -8 1 -15 3 -15 2 0 40
-13 86 -29 62 -22 79 -25 67 -13 -14 14 -71 38 -126 53 -8 2 -19 9 -25 15 -5
6 -27 21 -49 34 -34 21 -37 21 -28 4z"/>
<path d="M1390 1512 c0 -18 103 -102 124 -102 6 0 -11 15 -37 33 -46 31 -62
52 -32 41 8 -4 15 -10 15 -15 0 -5 9 -9 20 -9 10 0 23 -6 27 -13 4 -8 16 -17
27 -20 14 -6 16 -10 7 -20 -8 -11 5 -22 62 -55 39 -22 86 -44 102 -47 l30 -7
-25 18 c-102 72 -118 82 -113 69 7 -19 -6 -19 -32 1 -15 11 -17 17 -7 23 9 5
2 15 -26 33 -55 37 -142 80 -142 70z"/>
<path d="M719 1260 c-53 -49 -53 -50 -17 -33 20 9 35 20 32 25 -3 4 1 5 9 3 7
-3 26 1 41 8 26 14 26 15 5 20 -11 3 -18 10 -14 16 12 20 -1 11 -56 -39z"/>
<path d="M874 1225 c-29 -12 -66 -26 -83 -30 -49 -11 -45 -23 7 -18 26 3 54 7
62 10 8 3 34 6 58 8 24 1 46 6 50 9 3 4 -20 4 -51 2 -37 -3 -55 -1 -51 5 3 6
12 8 20 5 8 -3 14 -2 14 3 0 4 10 13 23 19 44 21 1 10 -49 -13z"/>
<path d="M1320 1200 c19 -5 66 -11 105 -14 54 -4 60 -3 25 3 -72 13 -172 22
-130 11z"/>
<path d="M938 1125 c-2 -3 -42 -11 -89 -19 l-84 -14 130 1 c85 0 111 2 75 6
-54 6 -55 6 -25 18 17 6 23 12 14 12 -9 1 -18 -1 -21 -4z"/>
<path d="M1370 1084 c-144 -42 -320 -74 -409 -74 -46 0 -82 -2 -79 -5 7 -8
167 -22 170 -15 2 3 57 16 123 29 106 21 279 72 293 86 9 8 -10 5 -98 -21z"/>
<path d="M1599 944 c-32 -75 -51 -130 -40 -119 15 15 73 156 67 162 -3 3 -15
-16 -27 -43z"/>
<path d="M1060 902 c0 -5 6 -9 13 -9 6 0 51 -10 100 -23 48 -12 93 -20 100
-17 6 2 -1 8 -18 12 -16 4 -65 15 -107 26 -89 22 -88 22 -88 11z"/>
<path d="M1713 834 c-7 -20 13 -134 26 -147 18 -18 307 41 357 72 18 12 18 12
-1 6 -11 -4 -38 -11 -60 -16 -22 -5 -70 -15 -108 -23 -37 -8 -94 -18 -126 -22
l-58 -6 -13 67 c-11 56 -10 69 1 76 11 7 11 9 1 9 -7 0 -15 -7 -19 -16z"/>
<path d="M1415 821 c6 -5 30 -12 55 -15 29 -4 38 -3 25 2 -32 14 -91 24 -80
13z"/>
<path d="M2024 380 c0 -63 1 -89 3 -57 2 31 2 83 0 115 -2 31 -3 5 -3 -58z"/>
<path d="M1276 123 c-8 -43 -5 -123 5 -123 5 0 9 34 9 75 0 78 -5 94 -14 48z"/>
</g>
</svg>
